<svg id="visual" viewBox="0 0 900 600" width="900" height="600" xmlns="http://www.w3.org/2000/svg" xmlns:xlink="http://www.w3.org/1999/xlink" version="1.1"><path d="M0 271L18.8 258C37.7 245 75.3 219 112.8 205C150.3 191 187.7 189 225.2 209C262.7 229 300.3 271 337.8 273C375.3 275 412.7 237 450.2 227C487.7 217 525.3 235 562.8 245C600.3 255 637.7 257 675.2 263C712.7 269 750.3 279 787.8 264C825.3 249 862.7 209 881.3 189L900 169L900 0L881.3 0C862.7 0 825.3 0 787.8 0C750.3 0 712.7 0 675.2 0C637.7 0 600.3 0 562.8 0C525.3 0 487.7 0 450.2 0C412.7 0 375.3 0 337.8 0C300.3 0 262.7 0 225.2 0C187.7 0 150.3 0 112.8 0C75.3 0 37.7 0 18.8 0L0 0Z" fill="#001b9800"></path><path d="M0 379L18.8 372C37.7 365 75.3 351 112.8 345C150.3 339 187.7 341 225.2 357C262.7 373 300.3 403 337.8 401C375.3 399 412.7 365 450.2 356C487.7 347 525.3 363 562.8 377C600.3 391 637.7 403 675.2 412C712.7 421 750.3 427 787.8 409C825.3 391 862.7 349 881.3 328L900 307L900 167L881.3 187C862.7 207 825.3 247 787.8 262C750.3 277 712.7 267 675.2 261C637.7 255 600.3 253 562.8 243C525.3 233 487.7 215 450.2 225C412.7 235 375.3 273 337.8 271C300.3 269 262.7 227 225.2 207C187.7 187 150.3 189 112.8 203C75.3 217 37.7 243 18.8 256L0 269Z" fill="#101114"></path><path d="M0 601L18.8 601C37.7 601 75.3 601 112.8 601C150.3 601 187.7 601 225.2 601C262.7 601 300.3 601 337.8 601C375.3 601 412.7 601 450.2 601C487.7 601 525.3 601 562.8 601C600.3 601 637.7 601 675.2 601C712.7 601 750.3 601 787.8 601C825.3 601 862.7 601 881.3 601L900 601L900 305L881.3 326C862.7 347 825.3 389 787.8 407C750.3 425 712.7 419 675.2 410C637.7 401 600.3 389 562.8 375C525.3 361 487.7 345 450.2 354C412.7 363 375.3 397 337.8 399C300.3 401 262.7 371 225.2 355C187.7 339 150.3 337 112.8 343C75.3 349 37.7 363 18.8 370L0 377Z" fill="#001b9800"></path></svg>