<svg id="visual" viewBox="0 0 1920 1080" width="1920" height="1080" xmlns="http://www.w3.org/2000/svg" xmlns:xlink="http://www.w3.org/1999/xlink" version="1.1"><path d="M0 341L16.8 332C33.7 323 67.3 305 101 278.7C134.7 252.3 168.3 217.7 202 206.3C235.7 195 269.3 207 303 213C336.7 219 370.3 219 404 236.8C437.7 254.7 471.3 290.3 505 309.2C538.7 328 572.3 330 606 322.3C639.7 314.7 673.3 297.3 707 273.3C740.7 249.3 774.3 218.7 808 207.5C841.7 196.3 875.3 204.7 909.2 230.3C943 256 977 299 1010.8 301.2C1044.7 303.3 1078.3 264.7 1112 262.2C1145.7 259.7 1179.3 293.3 1213 300.7C1246.7 308 1280.3 289 1314 282.5C1347.7 276 1381.3 282 1415 263.5C1448.7 245 1482.3 202 1516 196C1549.7 190 1583.3 221 1617 225.3C1650.7 229.7 1684.3 207.3 1718 223.8C1751.7 240.3 1785.3 295.7 1819 315.8C1852.7 336 1886.3 321 1903.2 313.5L1920 306L1920 0L1903.2 0C1886.3 0 1852.7 0 1819 0C1785.3 0 1751.7 0 1718 0C1684.3 0 1650.7 0 1617 0C1583.3 0 1549.7 0 1516 0C1482.3 0 1448.7 0 1415 0C1381.3 0 1347.7 0 1314 0C1280.3 0 1246.7 0 1213 0C1179.3 0 1145.7 0 1112 0C1078.3 0 1044.7 0 1010.8 0C977 0 943 0 909.2 0C875.3 0 841.7 0 808 0C774.3 0 740.7 0 707 0C673.3 0 639.7 0 606 0C572.3 0 538.7 0 505 0C471.3 0 437.7 0 404 0C370.3 0 336.7 0 303 0C269.3 0 235.7 0 202 0C168.3 0 134.7 0 101 0C67.3 0 33.7 0 16.8 0L0 0Z" fill="#393D47" stroke-linecap="round" stroke-linejoin="miter"></path></svg>