<svg id="visual" viewBox="0 0 1920 1080" width="1920" height="1080" xmlns="http://www.w3.org/2000/svg" xmlns:xlink="http://www.w3.org/1999/xlink" version="1.1"><path d="M0 737L16.8 746C33.7 755 67.3 773 101 799.3C134.7 825.7 168.3 860.3 202 871.7C235.7 883 269.3 871 303 865C336.7 859 370.3 859 404 841.2C437.7 823.3 471.3 787.7 505 768.8C538.7 750 572.3 748 606 755.7C639.7 763.3 673.3 780.7 707 804.7C740.7 828.7 774.3 859.3 808 870.5C841.7 881.7 875.3 873.3 909.2 847.7C943 822 977 779 1010.8 776.8C1044.7 774.7 1078.3 813.3 1112 815.8C1145.7 818.3 1179.3 784.7 1213 777.3C1246.7 770 1280.3 789 1314 795.5C1347.7 802 1381.3 796 1415 814.5C1448.7 833 1482.3 876 1516 882C1549.7 888 1583.3 857 1617 852.7C1650.7 848.3 1684.3 870.7 1718 854.2C1751.7 837.7 1785.3 782.3 1819 762.2C1852.7 742 1886.3 757 1903.2 764.5L1920 772L1920 1081L1903.2 1081C1886.3 1081 1852.7 1081 1819 1081C1785.3 1081 1751.7 1081 1718 1081C1684.3 1081 1650.7 1081 1617 1081C1583.3 1081 1549.7 1081 1516 1081C1482.3 1081 1448.7 1081 1415 1081C1381.3 1081 1347.7 1081 1314 1081C1280.3 1081 1246.7 1081 1213 1081C1179.3 1081 1145.7 1081 1112 1081C1078.3 1081 1044.7 1081 1010.8 1081C977 1081 943 1081 909.2 1081C875.3 1081 841.7 1081 808 1081C774.3 1081 740.7 1081 707 1081C673.3 1081 639.7 1081 606 1081C572.3 1081 538.7 1081 505 1081C471.3 1081 437.7 1081 404 1081C370.3 1081 336.7 1081 303 1081C269.3 1081 235.7 1081 202 1081C168.3 1081 134.7 1081 101 1081C67.3 1081 33.7 1081 16.8 1081L0 1081Z" fill="#393D47" stroke-linecap="round" stroke-linejoin="miter"></path></svg>