<svg id="visual" viewBox="0 0 1920 1080" width="1920" height="1080" xmlns="http://www.w3.org/2000/svg" xmlns:xlink="http://www.w3.org/1999/xlink" version="1.1"><path d="M0 683L16.8 665.2C33.7 647.3 67.3 611.7 101 559C134.7 506.3 168.3 436.7 202 413.8C235.7 391 269.3 415 303 426.8C336.7 438.7 370.3 438.3 404 474.2C437.7 510 471.3 582 505 620C538.7 658 572.3 662 606 646.5C639.7 631 673.3 596 707 547.8C740.7 499.7 774.3 438.3 808 416.2C841.7 394 875.3 411 909.2 462.3C943 513.7 977 599.3 1010.8 603.5C1044.7 607.7 1078.3 530.3 1112 525.2C1145.7 520 1179.3 587 1213 601.5C1246.7 616 1280.3 578 1314 565.2C1347.7 552.3 1381.3 564.7 1415 528C1448.7 491.3 1482.3 405.7 1516 393.7C1549.7 381.7 1583.3 443.3 1617 452C1650.7 460.7 1684.3 416.3 1718 449.2C1751.7 482 1785.3 592 1819 632.2C1852.7 672.3 1886.3 642.7 1903.2 627.8L1920 613L1920 0L1903.2 0C1886.3 0 1852.7 0 1819 0C1785.3 0 1751.7 0 1718 0C1684.3 0 1650.7 0 1617 0C1583.3 0 1549.7 0 1516 0C1482.3 0 1448.7 0 1415 0C1381.3 0 1347.7 0 1314 0C1280.3 0 1246.7 0 1213 0C1179.3 0 1145.7 0 1112 0C1078.3 0 1044.7 0 1010.8 0C977 0 943 0 909.2 0C875.3 0 841.7 0 808 0C774.3 0 740.7 0 707 0C673.3 0 639.7 0 606 0C572.3 0 538.7 0 505 0C471.3 0 437.7 0 404 0C370.3 0 336.7 0 303 0C269.3 0 235.7 0 202 0C168.3 0 134.7 0 101 0C67.3 0 33.7 0 16.8 0L0 0Z" fill="#393D47" stroke-linecap="round" stroke-linejoin="miter"></path></svg>