<svg id="visual" viewBox="0 0 1920 233" width="1920" height="233" xmlns="http://www.w3.org/2000/svg" xmlns:xlink="http://www.w3.org/1999/xlink" version="1.1"><path d="M0 117L20 122.7C40 128.3 80 139.7 120 141.3C160 143 200 135 240 131.5C280 128 320 129 360 134.8C400 140.7 440 151.3 480 155.8C520 160.3 560 158.7 600 149C640 139.3 680 121.7 720 110.3C760 99 800 94 840 98.5C880 103 920 117 960 115.7C1000 114.3 1040 97.7 1080 93.2C1120 88.7 1160 96.3 1200 104.7C1240 113 1280 122 1320 120.8C1360 119.7 1400 108.3 1440 112.5C1480 116.7 1520 136.3 1560 143.3C1600 150.3 1640 144.7 1680 141.8C1720 139 1760 139 1800 130.2C1840 121.3 1880 103.7 1900 94.8L1920 86L1920 234L1900 234C1880 234 1840 234 1800 234C1760 234 1720 234 1680 234C1640 234 1600 234 1560 234C1520 234 1480 234 1440 234C1400 234 1360 234 1320 234C1280 234 1240 234 1200 234C1160 234 1120 234 1080 234C1040 234 1000 234 960 234C920 234 880 234 840 234C800 234 760 234 720 234C680 234 640 234 600 234C560 234 520 234 480 234C440 234 400 234 360 234C320 234 280 234 240 234C200 234 160 234 120 234C80 234 40 234 20 234L0 234Z" fill="#393D47" stroke-linecap="round" stroke-linejoin="miter"></path></svg>